<?xml version="1.0" encoding="UTF-8"?>
<svg width="256px" height="256px" viewBox="0 0 256 256" version="1.1" xmlns="http://www.w3.org/2000/svg" preserveAspectRatio="xMidYMid">
    <g>
        <path d="M210.483381,73.8236374 C207.827698,72.9095503 205.075867,72.0446761 202.24247,71.2267368 C202.708172,69.3261098 203.135596,67.4500894 203.515631,65.6059664 C209.753843,35.3248922 205.675082,10.9302478 191.747328,2.89849283 C178.392359,-4.80289661 156.551327,3.22703567 134.492936,22.4237776 C132.371761,24.2697233 130.244662,26.2241201 128.118477,28.2723861 C126.701777,26.917204 125.287358,25.6075897 123.876584,24.3549348 C100.758745,3.82852863 77.5866802,-4.82157937 63.6725966,3.23341515 C50.3303869,10.9571328 46.3792156,33.8904224 51.9945178,62.5880206 C52.5367729,65.3599011 53.1706189,68.1905639 53.8873982,71.068617 C50.6078941,71.9995641 47.4418534,72.9920277 44.4125156,74.0478303 C17.3093297,83.497195 0,98.3066828 0,113.667995 C0,129.533287 18.5815786,145.446423 46.8116526,155.095373 C49.0394553,155.856809 51.3511025,156.576778 53.7333796,157.260293 C52.9600965,160.37302 52.2875179,163.423318 51.7229345,166.398431 C46.3687351,194.597975 50.5500231,216.989464 63.8566899,224.664425 C77.6012619,232.590464 100.66852,224.443422 123.130185,204.809231 C124.905501,203.257196 126.687196,201.611293 128.472081,199.886102 C130.785552,202.113904 133.095375,204.222319 135.392897,206.199955 C157.14963,224.922338 178.637969,232.482469 191.932332,224.786092 C205.663234,216.837268 210.125675,192.78347 204.332202,163.5181 C203.88974,161.283006 203.374826,158.99961 202.796573,156.675661 C204.416503,156.196743 206.006814,155.702335 207.557482,155.188332 C236.905331,145.46465 256,129.745175 256,113.667995 C256,98.2510906 238.132466,83.3418093 210.483381,73.8236374 Z" fill="#00D8FF"></path>
        <path d="M201.345213,79.3473017 C199.116262,78.5651067 196.806811,77.8300625 194.42916,77.1378867 C194.837275,75.4725595 195.211158,73.8325898 195.543325,72.2249878 C201.198771,44.5325805 197.504824,22.424531 185.095684,15.2512542 C173.193975,8.40416773 153.443961,15.6681736 133.373417,33.0987769 C131.443959,34.7744848 129.508619,36.5493726 127.574843,38.4104725 C126.297883,37.1965547 125.023015,36.0304592 123.750721,34.9122961 C102.745985,16.2910493 81.7837039,8.4312571 69.3909113,15.6356732 C57.5019752,22.4908577 53.9077951,43.1506638 58.9964842,69.3816807 C59.4853682,71.8909974 60.0551288,74.4518959 60.6957778,77.0644674 C57.7625664,77.8940526 54.9441674,78.7817262 52.2634639,79.7273046 C27.8553658,88.3405454 12,101.762362 12,115.883674 C12,130.447061 28.8005718,144.830931 54.3639896,153.666467 C56.3753541,154.347477 58.4631439,154.995487 60.6173843,155.609611 C59.9197454,158.390988 59.3115665,161.122646 58.7933608,163.798873 C53.8934564,189.657308 57.6830751,209.780953 69.5100875,216.579262 C81.7404021,223.6409 102.413981,216.334518 122.880181,198.350831 C124.461391,196.944692 126.048382,195.448301 127.639638,193.867435 C129.712476,195.871072 131.781528,197.764839 133.844811,199.541187 C153.664095,216.761376 172.963663,223.571736 184.773344,216.699182 C197.000162,209.57116 201.017612,187.883143 195.739265,161.048842 C195.349999,159.05668 194.899533,157.019466 194.392287,154.942106 C195.825585,154.517506 197.23193,154.078146 198.603071,153.622932 C225.173505,144.71378 242,130.171463 242,115.883674 C242,101.710145 225.663599,88.2273588 201.345213,79.3473017 Z M195.604364,147.266767 C194.344566,147.687358 193.0534,148.094237 191.734558,148.486728 C189.537995,141.821044 186.730434,134.736626 183.375235,127.38419 C186.547581,120.21907 189.207481,113.258382 191.311147,106.68913 C193.983876,107.457566 196.570256,108.277988 199.05071,109.154663 C219.953783,116.741429 233,127.647456 233,115.883674 C233,103.710597 218.723312,93.6288694 196.574403,85.9460766 C195.139927,85.4259763 193.670252,84.9290559 192.16859,84.4511307 C191.661897,82.5106174 191.107006,80.5981735 190.506635,78.7169944 C195.506415,52.5023511 192.493768,33.1795353 183.092061,27.7448085 C174.196196,22.5562331 157.093875,28.6882319 139.488422,44.2765389 C137.86337,45.7483565 136.23851,47.3018254 134.615167,48.9338796 C131.853709,46.0511252 129.091653,43.3403176 126.33073,40.8096423 C107.843725,24.2777034 89.5342027,17.6784417 80.1404158,23.1528239 C71.2503956,28.4103286 68.3293268,46.2803494 72.8001775,71.0367797 C73.3697731,73.4973683 74.0099693,75.9922834 74.7172846,78.5179798 C72.9990011,78.9890605 71.3208693,79.4792181 69.6852439,79.9895869 C48.4168306,87.5845664 35,97.4571453 35,115.883674 C35,128.048723 49.2822842,138.571186 71.2034884,146.261562 C73.2777791,146.936126 75.4069841,147.578123 77.5857976,148.188082 C76.8520977,151.040506 76.1952366,153.828648 75.6187225,156.544165 C71.3459929,180.865906 74.4467103,198.242099 83.2841913,203.43274 C92.5160118,208.889574 110.820894,202.724514 129.201383,186.236783 C130.613693,184.967789 132.03096,183.617345 133.451917,182.188841 C135.380601,184.048834 137.305862,185.805469 139.226262,187.454791 C157.071931,203.30784 174.079865,209.056892 182.936339,203.794653 C192.184937,198.332631 195.500906,179.335381 190.844373,154.014963 C190.392114,152.108896 189.883474,150.16791 189.321534,148.195477 C190.488372,147.832877 191.634618,147.459466 192.758171,147.075263 C215.690762,139.301947 231,128.952852 231,115.883674 C231,102.788891 214.716289,92.2713621 191.734558,84.4511307 L195.604364,147.266767 Z" fill="#FFFFFF"></path>
        <path d="M127.906377,96.9984848 C139.421708,96.9984848 148.763773,106.340549 148.763773,117.855881 C148.763773,129.371212 139.421708,138.713276 127.906377,138.713276 C116.391045,138.713276 107.04898,129.371212 107.04898,117.855881 C107.04898,106.340549 116.391045,96.9984848 127.906377,96.9984848" fill="#00D8FF"></path>
    </g>
</svg>
