<?xml version="1.0" encoding="UTF-8"?>
<svg width="256px" height="256px" viewBox="0 0 256 256" version="1.1" xmlns="http://www.w3.org/2000/svg" preserveAspectRatio="xMidYMid">
    <defs>
        <linearGradient x1="-2.77777778%" y1="32%" x2="100%" y2="67.5555556%" id="linearGradient-1">
            <stop stop-color="#2298BD" offset="0%"></stop>
            <stop stop-color="#0ED7B5" offset="100%"></stop>
        </linearGradient>
    </defs>
    <g>
        <path d="M128,0 C93.9733333,0 72.0533333,17.0666667 62.2666667,51.2 C74.6666667,34.1333333 89.3333333,27.7333333 106.24,32 C115.925635,34.3423097 122.95737,41.4138439 130.688,49.2224 C143.793067,62.4864 159.296,78.1333333 192,78.1333333 C226.026667,78.1333333 247.946667,61.0666667 257.733333,26.9333333 C245.333333,44 230.666667,50.4 213.76,46.1333333 C204.074365,43.7910236 197.04263,36.7194894 189.312,28.9109333 C176.206933,15.6469333 160.704,0 128,0 Z M64,78.1333333 C29.9733333,78.1333333 8.05333333,95.2 -1.73333333,129.333333 C10.6666667,112.266667 25.3333333,105.866667 42.24,110.133333 C51.9256346,112.475643 58.9573695,119.547177 66.688,127.355733 C79.7930667,140.619733 95.296,156.266667 128,156.266667 C162.026667,156.266667 183.946667,139.2 193.733333,105.066667 C181.333333,122.133333 166.666667,128.533333 149.76,124.266667 C140.074365,121.924357 133.04263,114.852823 125.312,107.044267 C112.206933,93.7802667 96.704,78.1333333 64,78.1333333 Z" fill="url(#linearGradient-1)"></path>
    </g>
</svg>
