<?xml version="1.0" encoding="UTF-8"?>
<svg width="256px" height="256px" viewBox="0 0 256 256" version="1.1" xmlns="http://www.w3.org/2000/svg" preserveAspectRatio="xMidYMid">
    <title>TypeScript</title>
    <g>
        <path d="M20,0 L236,0 C247.045695,-2.02906125e-15 256,8.954305 256,20 L256,236 C256,247.045695 247.045695,256 236,256 L20,256 C8.954305,256 1.3527075e-15,247.045695 0,236 L0,20 C-1.3527075e-15,8.954305 8.954305,2.02906125e-15 20,0 Z" fill="#3178C6"></path>
        <path d="M150.518,200.475 L150.518,228.095 C155.01,230.397 160.323,232.123 166.456,233.274 C172.589,234.425 179.053,235 185.849,235 C192.471,235 198.763,234.367 204.723,233.101 C210.683,231.835 215.91,229.749 220.401,226.844 C224.893,223.938 228.449,220.14 231.07,215.45 C233.69,210.76 235,204.969 235,198.075 C235,193.211 234.314,189.028 232.942,185.525 C231.57,182.023 229.653,178.926 227.19,176.236 C224.727,173.545 221.832,171.103 218.506,168.909 C215.179,166.715 211.599,164.671 207.766,162.776 C204.789,161.226 202.03,159.807 199.49,158.518 C196.95,157.229 194.705,155.982 192.755,154.777 C190.806,153.572 189.22,152.338 187.998,151.075 C186.777,149.812 186.166,148.378 186.166,146.773 C186.166,145.34 186.62,144.08 187.529,142.993 C188.438,141.906 189.634,140.982 191.117,140.221 C192.6,139.46 194.307,138.895 196.237,138.525 C198.167,138.155 200.172,137.97 202.252,137.97 C203.909,137.97 205.641,138.083 207.449,138.31 C209.257,138.537 211.065,138.895 212.873,139.385 C214.681,139.875 216.451,140.488 218.184,141.224 C219.917,141.96 221.537,142.79 223.044,143.715 L223.044,117.937 C218.9,116.545 214.641,115.529 210.268,114.889 C205.895,114.249 201.024,113.929 195.657,113.929 C189.131,113.929 182.952,114.616 177.121,115.989 C171.29,117.363 166.152,119.504 161.706,122.413 C157.26,125.321 153.74,129.065 151.144,133.644 C148.548,138.223 147.25,143.727 147.25,150.157 C147.25,157.66 149.129,164.096 152.887,169.467 C156.645,174.838 162.504,179.573 170.465,183.671 C173.442,185.222 176.315,186.676 179.083,188.034 C181.851,189.392 184.298,190.721 186.423,192.02 C188.548,193.319 190.285,194.646 191.633,196.002 C192.981,197.357 193.655,198.848 193.655,200.475 C193.655,201.733 193.225,202.876 192.366,203.905 C191.507,204.934 190.311,205.813 188.779,206.542 C187.247,207.271 185.467,207.825 183.441,208.204 C181.415,208.583 179.216,208.772 176.844,208.772 C171.575,208.772 166.381,207.955 161.263,206.32 C156.145,204.685 151.328,202.179 146.812,198.802 L146.812,200.475 L150.518,200.475 Z M84.741,190 L115.001,190 L115.001,114.738 L84.741,114.738 L84.741,190 Z M84.741,103.884 L115.001,103.884 L115.001,78.123 L84.741,78.123 L84.741,103.884 Z" fill="#FFFFFF"></path>
    </g>
</svg>
